<svg xmlns="http://www.w3.org/2000/svg" viewBox="401 -3120 2892 1240">
  <path d="M 444 -3046 l -41 74 l 231 133 l 231 134 l 3 205 l 2 205 l -234 135 l -235 135 l 35 60 c 19 33 38 66 43 74 c 6 10 60 -17 234 -118 c 124 -72 229 -131 232 -131 c 3 0 107 58 230 130 l 224 130 l 265 -153 l 265 -152 l 1 -257 l 0 -256 l 183 -105 c 100 -58 189 -108 198 -112 c 10 -4 100 43 239 123 l 224 129 l 36 -23 c 19 -12 134 -80 255 -149 c 121 -70 223 -130 227 -133 c 8 -8 -69 -142 -82 -142 c -5 0 -106 56 -225 125 l -216 126 l -225 -130 l -225 -130 l -224 129 c -123 72 -229 130 -236 130 c -6 0 -112 -59 -236 -130 l -223 -130 l -226 131 c -191 111 -230 130 -248 121 c -11 -5 -115 -64 -230 -131 c -115 -66 -209 -121 -210 -121 c -1 0 -19 34 -42 74 z m 1120 252 l 166 96 l 0 198 l 0 198 l -165 96 l -166 95 l -167 -97 l -167 -97 l 0 -195 l 0 -195 l 165 -97 c 91 -53 166 -97 166 -97 c 1 -1 77 42 168 95 z" fill="#000000"/>
</svg>