<svg xmlns="http://www.w3.org/2000/svg" viewBox="401 -3120 4262 1240">
  <path d="M 444 -3046 l -41 74 l 231 133 l 231 134 l 3 205 l 2 205 l -234 135 l -235 135 l 35 60 c 19 33 38 66 43 74 c 6 10 60 -17 234 -118 c 124 -72 229 -131 232 -131 c 3 0 107 58 230 130 l 224 130 l 265 -153 l 265 -152 l 1 -257 l 0 -256 l 183 -105 c 100 -58 189 -108 198 -112 c 10 -4 100 43 239 123 l 224 129 l 36 -23 c 19 -12 134 -80 255 -149 c 121 -70 223 -130 227 -133 c 8 -8 -69 -142 -82 -142 c -5 0 -106 56 -225 125 l -216 126 l -225 -130 l -225 -130 l -224 129 c -123 72 -229 130 -236 130 c -6 0 -112 -59 -236 -130 l -223 -130 l -226 131 c -191 111 -230 130 -248 121 c -11 -5 -115 -64 -230 -131 c -115 -66 -209 -121 -210 -121 c -1 0 -19 34 -42 74 z m 1120 252 l 166 96 l 0 198 l 0 198 l -165 96 l -166 95 l -167 -97 l -167 -97 l 0 -195 l 0 -195 l 165 -97 c 91 -53 166 -97 166 -97 c 1 -1 77 42 168 95 z M 3970 -2550 c 0 28 3 30 35 30 c 32 0 35 -2 35 -30 c 0 -28 -3 -30 -35 -30 c -32 0 -35 2 -35 30 z M 2533 -2548 c -68 14 -123 94 -123 178 c 0 84 55 164 123 178 c 118 24 202 -50 202 -178 c 0 -128 -84 -202 -202 -178 z m 92 70 c 75 65 38 238 -51 238 c -37 0 -80 -48 -88 -97 c -14 -82 31 -163 90 -163 c 12 0 35 10 49 22 z M 2060 -2529 c 0 12 8 23 20 26 c 19 5 20 14 20 133 c 0 119 -1 128 -20 133 c -12 3 -20 14 -20 26 c 0 20 5 21 98 21 c 112 0 153 -15 189 -69 c 19 -28 23 -48 23 -111 c 0 -63 -4 -83 -23 -111 c -36 -54 -77 -69 -189 -69 c -93 0 -98 1 -98 21 z m 219 65 c 17 21 21 41 21 94 c 0 90 -22 120 -86 120 l -44 0 l 0 -120 l 0 -120 l 44 0 c 36 0 48 5 65 26 z M 2770 -2525 c 0 16 6 25 15 25 c 13 0 15 21 15 129 c 0 105 -3 130 -15 135 c -8 3 -15 15 -15 26 c 0 18 6 20 75 20 c 69 0 75 -2 75 -21 c 0 -12 -8 -23 -20 -26 c -16 -4 -20 -14 -20 -44 l 0 -39 l 45 0 c 88 0 145 -46 145 -115 c 0 -42 -28 -85 -65 -101 c -22 -9 -71 -14 -135 -14 l -100 0 l 0 25 z m 214 51 c 9 8 16 26 16 39 c 0 36 -26 55 -76 55 l -44 0 l 0 -55 l 0 -55 l 44 0 c 27 0 51 6 60 16 z M 3172 -2396 c -30 85 -60 157 -68 160 c -8 3 -14 15 -14 26 c 0 18 6 20 60 20 c 51 0 60 -3 60 -18 c 0 -10 -4 -22 -10 -28 c -5 -5 -7 -19 -4 -32 c 6 -20 13 -22 64 -22 c 51 0 60 3 65 21 c 4 12 2 26 -4 32 c -6 6 -11 19 -11 29 c 0 15 9 18 60 18 c 49 0 60 -3 60 -17 c 0 -9 -6 -24 -14 -32 c -8 -9 -35 -75 -59 -146 c -25 -72 -48 -138 -52 -148 c -5 -12 -18 -17 -44 -17 l -36 0 l -53 154 z m 127 43 c 1 8 -13 13 -38 13 l -39 0 l 14 -48 c 24 -80 25 -80 44 -27 c 10 27 19 56 19 62 z M 3460 -2530 c 0 13 8 24 20 27 c 19 5 20 14 20 133 c 0 119 -1 128 -20 133 c -12 3 -20 14 -20 26 c 0 19 6 21 75 21 c 69 0 75 -2 75 -21 c 0 -12 -8 -23 -20 -26 c -18 -5 -20 -14 -20 -73 c 0 -37 -3 -83 -6 -101 c -12 -59 7 -24 51 98 c 38 104 46 118 68 121 c 23 3 27 -5 72 -128 c 26 -72 48 -129 49 -128 c 1 2 0 49 -2 105 c -3 90 -5 102 -23 106 c -11 3 -19 14 -19 26 c 0 19 6 21 75 21 c 69 0 75 -2 75 -21 c 0 -12 -8 -23 -20 -26 c -19 -5 -20 -14 -20 -133 c 0 -119 1 -128 20 -133 c 12 -3 20 -14 20 -27 c 0 -20 -4 -21 -67 -18 l -68 3 l -42 120 c -23 66 -43 124 -45 129 c -3 6 -25 -48 -50 -120 l -45 -129 l -67 -3 c -62 -3 -66 -2 -66 18 z M 3930 -2435 c 0 18 5 25 20 25 c 18 0 20 7 20 85 c 0 69 -3 85 -15 85 c -9 0 -15 9 -15 25 c 0 24 2 25 70 25 c 64 0 70 -2 70 -21 c 0 -12 -8 -23 -20 -26 c -18 -5 -20 -14 -20 -114 l 0 -109 l -55 0 c -52 0 -55 1 -55 25 z M 4090 -2439 c 0 12 8 23 20 26 c 18 5 20 14 20 89 c 0 68 -3 84 -15 84 c -9 0 -15 9 -15 25 c 0 24 2 25 65 25 c 63 0 65 -1 65 -25 c 0 -16 -6 -25 -15 -25 c -12 0 -15 -15 -15 -75 c 0 -72 1 -76 26 -85 c 17 -7 32 -7 45 0 c 16 9 19 22 19 84 c 0 56 -4 75 -15 80 c -8 3 -15 15 -15 26 c 0 18 6 20 70 20 c 64 0 70 -2 70 -21 c 0 -12 -8 -23 -20 -26 c -18 -5 -20 -14 -20 -88 c 0 -68 -4 -87 -21 -109 c -26 -33 -84 -36 -117 -6 l -22 21 l 0 -21 c 0 -18 -6 -20 -55 -20 c -49 0 -55 2 -55 21 z M 4470 -2433 c -62 55 -60 166 2 218 c 29 24 38 27 95 23 c 71 -4 85 -13 76 -46 c -4 -17 -10 -21 -22 -16 c -38 17 -82 16 -101 -1 c -39 -35 -26 -45 61 -45 l 82 0 l -5 -52 c -4 -42 -11 -57 -37 -80 c -44 -39 -108 -39 -151 -1 z m 104 39 c 30 29 20 44 -29 44 c -49 0 -56 -11 -28 -42 c 20 -22 37 -23 57 -2 z" fill="#000000"/>
</svg>