<svg version="1.0" xmlns="http://www.w3.org/2000/svg"
 width="500.000000pt" height="500.000000pt" viewBox="0 0 500.000000 500.000000"
 preserveAspectRatio="xMidYMid meet">
    <g transform="translate(0.000000,500.000000) scale(0.100000,-0.100000)"
    fill="#000000" stroke="none">
    <path d="M2840 3189 l-325 -188 -55 32 c-30 17 -174 100 -318 184 -145 84
    -270 153 -277 153 -7 0 -153 -81 -324 -180 -170 -99 -314 -180 -320 -180 -5 0
    -150 81 -322 180 -172 100 -317 179 -323 177 -11 -5 -116 -183 -116 -196 1 -3
    147 -89 325 -191 l324 -185 -2 -294 -2 -294 -325 -188 c-179 -103 -325 -191
    -325 -196 0 -6 95 -180 110 -201 1 -1 148 82 325 184 178 103 328 187 334 187
    6 0 152 -82 324 -182 173 -100 317 -181 322 -179 4 2 175 100 379 218 l371
    215 0 361 0 360 266 154 c147 84 272 153 278 153 7 0 150 -79 319 -176 168
    -97 310 -177 315 -177 7 0 269 149 680 388 34 20 62 39 62 43 0 8 -98 180
    -109 192 -4 4 -148 -74 -320 -173 l-312 -180 -297 171 c-163 94 -306 177 -317
    184 -18 11 -55 -8 -345 -176z m-686 -210 l266 -154 -2 -324 -3 -323 -275 -160
    -275 -159 -35 20 c-19 11 -143 82 -275 159 l-240 139 -3 324 -2 324 267 157
    c162 95 276 156 289 154 12 -1 141 -72 288 -157z"/>
    </g>
</svg>
