<svg width="164" height="164" viewBox="0 0 164 164" fill="none" xmlns="http://www.w3.org/2000/svg">
    <path d="M82.0124 0.00204163C62.5746 -0.137692 43.7293 6.89943 28.8813 19.842C14.0334 32.7846 4.16188 50.7791 1.05038 70.5744C-2.06113 90.3697 1.79255 110.66 11.9152 127.78C22.0378 144.901 37.7618 157.721 56.2462 163.926C60.3185 164.613 61.6512 161.787 61.6512 159.724V145.669C39.2169 150.558 34.4783 134.517 34.4783 134.517C30.4061 124.663 25.0011 121.914 25.0011 121.914C18.1894 116.948 25.7415 116.948 25.7415 116.948C33.886 116.948 38.5505 125.351 38.5505 125.351C45.3623 137.955 57.579 134.517 62.3176 132.378C62.3139 130.271 62.733 128.185 63.5485 126.253C64.364 124.32 65.5583 122.583 67.0562 121.15C48.7681 119.087 29.7397 112.06 29.7397 79.1376C29.7397 70.7352 33.1456 63.0966 38.6246 57.4441C37.1726 53.9034 36.4245 50.098 36.4245 46.2536C36.4245 42.4091 37.1726 38.6037 38.6246 35.0631C38.6246 35.0631 45.3623 32.9243 61.6512 43.4655C74.9785 39.7226 89.0462 39.7226 102.374 43.4655C117.922 32.9243 124.734 35.0631 124.734 35.0631C126.186 38.6037 126.934 42.4091 126.934 46.2536C126.934 50.098 126.186 53.9034 124.734 57.4441C130.879 63.0966 133.619 70.7352 133.619 79.9014C133.619 112.06 114.59 119.087 96.3022 121.15C99.634 123.976 102.374 128.177 102.374 136.58V159.724C102.374 161.787 103.114 164.613 107.779 163.926C126.263 157.721 141.987 144.901 152.11 127.78C162.232 110.66 166.086 90.3697 162.974 70.5744C159.863 50.7791 149.991 32.7846 135.143 19.842C120.295 6.89943 101.45 -0.137692 82.0124 0.00204163Z" fill="#6F6F6F"/>
</svg>
