<svg width="164" height="164" viewBox="0 0 164 164" fill="none" xmlns="http://www.w3.org/2000/svg">
    <g clip-path="url(#clip0_125_158)">
        <path d="M82 0C36.736 0 0 36.736 0 82C0 127.264 36.736 164 82 164C127.264 164 164 127.264 164 82C164 36.736 127.264 0 82 0ZM82 32.8C97.826 32.8 110.7 45.674 110.7 61.5C110.7 77.326 97.826 90.2 82 90.2C66.174 90.2 53.3 77.326 53.3 61.5C53.3 45.674 66.174 32.8 82 32.8ZM82 147.6C65.354 147.6 45.674 140.876 31.652 123.984C45.51 113.16 62.976 106.6 82 106.6C101.024 106.6 118.49 113.16 132.348 123.984C118.326 140.876 98.646 147.6 82 147.6Z" fill="#6F6F6F"/>
    </g>
    <defs>
        <clipPath id="clip0_125_158">
            <rect width="164" height="164" fill="white"/>
        </clipPath>
    </defs>
</svg>
