<svg
	width="164"
	height="164"
	viewBox="0 0 164 164"
	fill="none"
	xmlns="http://www.w3.org/2000/svg"
>
	<g clip-path="url(#clip0_125_163)">
		<path
			d="M81.918 0C36.654 0 0 36.736 0 82C0 127.264 36.654 164 81.918 164C127.264 164 164 127.264 164 82C164 36.736 127.264 0 81.918 0ZM138.744 49.2H114.554C111.93 38.95 108.158 29.11 103.238 20.008C118.326 25.174 130.872 35.67 138.744 49.2ZM82 16.728C88.806 26.568 94.136 37.474 97.662 49.2H66.338C69.864 37.474 75.194 26.568 82 16.728ZM18.532 98.4C17.22 93.152 16.4 87.658 16.4 82C16.4 76.342 17.22 70.848 18.532 65.6H46.248C45.592 71.012 45.1 76.424 45.1 82C45.1 87.576 45.592 92.988 46.248 98.4H18.532ZM25.256 114.8H49.446C52.07 125.05 55.842 134.89 60.762 143.992C45.674 138.826 33.128 128.412 25.256 114.8ZM49.446 49.2H25.256C33.128 35.588 45.674 25.174 60.762 20.008C55.842 29.11 52.07 38.95 49.446 49.2ZM82 147.272C75.194 137.432 69.864 126.526 66.338 114.8H97.662C94.136 126.526 88.806 137.432 82 147.272ZM101.188 98.4H62.812C62.074 92.988 61.5 87.576 61.5 82C61.5 76.424 62.074 70.93 62.812 65.6H101.188C101.926 70.93 102.5 76.424 102.5 82C102.5 87.576 101.926 92.988 101.188 98.4ZM103.238 143.992C108.158 134.89 111.93 125.05 114.554 114.8H138.744C130.872 128.33 118.326 138.826 103.238 143.992ZM117.752 98.4C118.408 92.988 118.9 87.576 118.9 82C118.9 76.424 118.408 71.012 117.752 65.6H145.468C146.78 70.848 147.6 76.342 147.6 82C147.6 87.658 146.78 93.152 145.468 98.4H117.752Z"
			fill="#6F6F6F"
		/>
	</g>
	<defs>
		<clipPath id="clip0_125_163">
			<rect width="164" height="164" fill="white" />
		</clipPath>
	</defs>
</svg>
